<mxfile host="Electron" agent="Mozilla/5.0 (Windows NT 10.0; Win64; x64) AppleWebKit/537.36 (KHTML, like Gecko) draw.io/24.7.17 Chrome/128.0.6613.36 Electron/32.0.1 Safari/537.36" version="24.7.17">
  <diagram id="1melNaSolVcVxCgocV_e" name="Cấu trúc thư mục landsat_data_processing">
    <mxGraphModel dx="1247" dy="734" grid="1" gridSize="10" guides="1" tooltips="1" connect="1" arrows="1" fold="1" page="1" pageScale="1" pageWidth="1181" pageHeight="1575" math="0" shadow="0">
      <root>
        <mxCell id="0" />
        <mxCell id="1" parent="0" />
        <mxCell id="A992f-NG55a3uFo_vKlw-1" value="" style="rounded=0;whiteSpace=wrap;html=1;fillColor=none;movable=1;resizable=1;rotatable=1;deletable=1;editable=1;locked=0;connectable=1;strokeColor=default;flipH=1;" parent="1" vertex="1">
          <mxGeometry y="120" width="1180" height="1880" as="geometry" />
        </mxCell>
        <mxCell id="YTfSh9oktMzhfyucGvKn-1" value="&lt;h1&gt;&lt;font size=&quot;1&quot; style=&quot;&quot;&gt;&lt;b style=&quot;font-size: 40px;&quot;&gt;Cấu trúc thư mục landsat_data_processing&lt;/b&gt;&lt;/font&gt;&lt;/h1&gt;" style="text;html=1;align=center;verticalAlign=middle;whiteSpace=wrap;rounded=0;movable=1;resizable=1;rotatable=1;deletable=1;editable=1;locked=0;connectable=1;" parent="1" vertex="1">
          <mxGeometry width="1180" height="120" as="geometry" />
        </mxCell>
        <mxCell id="-OsjYRaCj5ML0IWbTysy-4" value="&lt;span style=&quot;font-size: 20px;&quot;&gt;landsat_data_processing&lt;/span&gt;" style="rounded=0;whiteSpace=wrap;html=1;fontSize=18;" parent="1" vertex="1">
          <mxGeometry x="140" y="160" width="260" height="40" as="geometry" />
        </mxCell>
        <mxCell id="-OsjYRaCj5ML0IWbTysy-5" value="&lt;span style=&quot;font-size: 20px;&quot;&gt;auto_rsgis_processing&lt;/span&gt;" style="rounded=0;whiteSpace=wrap;html=1;fontSize=18;" parent="1" vertex="1">
          <mxGeometry x="220" y="240" width="260" height="40" as="geometry" />
        </mxCell>
        <mxCell id="-OsjYRaCj5ML0IWbTysy-13" style="edgeStyle=orthogonalEdgeStyle;rounded=0;orthogonalLoop=1;jettySize=auto;html=1;strokeColor=default;endArrow=none;endFill=0;" parent="1" source="-OsjYRaCj5ML0IWbTysy-9" target="-OsjYRaCj5ML0IWbTysy-10" edge="1">
          <mxGeometry relative="1" as="geometry">
            <Array as="points">
              <mxPoint x="102" y="260" />
            </Array>
          </mxGeometry>
        </mxCell>
        <mxCell id="wzY-Gv61pwX7nlD081uU-4" style="edgeStyle=orthogonalEdgeStyle;rounded=0;orthogonalLoop=1;jettySize=auto;html=1;endArrow=none;endFill=0;" edge="1" parent="1" source="-OsjYRaCj5ML0IWbTysy-9" target="WE0EybeJg85L4R40hYA2-10">
          <mxGeometry relative="1" as="geometry">
            <mxPoint x="140" y="960" as="targetPoint" />
            <Array as="points">
              <mxPoint x="102" y="840" />
            </Array>
          </mxGeometry>
        </mxCell>
        <mxCell id="-OsjYRaCj5ML0IWbTysy-9" value="" style="sketch=0;outlineConnect=0;fontColor=#232F3E;gradientColor=none;fillColor=#232F3D;strokeColor=none;dashed=0;verticalLabelPosition=bottom;verticalAlign=top;align=center;html=1;fontSize=12;fontStyle=0;aspect=fixed;pointerEvents=1;shape=mxgraph.aws4.folder;" parent="1" vertex="1">
          <mxGeometry x="80" y="160" width="43.94" height="40" as="geometry" />
        </mxCell>
        <mxCell id="-OsjYRaCj5ML0IWbTysy-42" style="edgeStyle=orthogonalEdgeStyle;rounded=0;orthogonalLoop=1;jettySize=auto;html=1;entryX=0.01;entryY=0.504;entryDx=0;entryDy=0;entryPerimeter=0;endArrow=none;endFill=0;" parent="1" target="-OsjYRaCj5ML0IWbTysy-35" edge="1">
          <mxGeometry relative="1" as="geometry">
            <mxPoint x="260" y="590" as="targetPoint" />
            <mxPoint x="181.94444444444446" y="289.9727272727273" as="sourcePoint" />
            <Array as="points">
              <mxPoint x="182" y="580" />
              <mxPoint x="260" y="580" />
            </Array>
          </mxGeometry>
        </mxCell>
        <mxCell id="-OsjYRaCj5ML0IWbTysy-45" style="edgeStyle=orthogonalEdgeStyle;rounded=0;orthogonalLoop=1;jettySize=auto;html=1;entryX=0.027;entryY=0.49;entryDx=0;entryDy=0;entryPerimeter=0;endArrow=none;endFill=0;" parent="1" source="-OsjYRaCj5ML0IWbTysy-10" target="-OsjYRaCj5ML0IWbTysy-29" edge="1">
          <mxGeometry relative="1" as="geometry">
            <mxPoint x="270" y="400" as="targetPoint" />
            <Array as="points">
              <mxPoint x="182" y="400" />
            </Array>
          </mxGeometry>
        </mxCell>
        <mxCell id="-OsjYRaCj5ML0IWbTysy-46" style="edgeStyle=orthogonalEdgeStyle;rounded=0;orthogonalLoop=1;jettySize=auto;html=1;entryX=0.021;entryY=0.483;entryDx=0;entryDy=0;entryPerimeter=0;endArrow=none;endFill=0;" parent="1" source="-OsjYRaCj5ML0IWbTysy-10" target="-OsjYRaCj5ML0IWbTysy-37" edge="1">
          <mxGeometry relative="1" as="geometry">
            <mxPoint x="280" y="640" as="targetPoint" />
            <Array as="points">
              <mxPoint x="182" y="639" />
            </Array>
          </mxGeometry>
        </mxCell>
        <mxCell id="wzY-Gv61pwX7nlD081uU-7" style="edgeStyle=orthogonalEdgeStyle;rounded=0;orthogonalLoop=1;jettySize=auto;html=1;endArrow=none;endFill=0;" edge="1" parent="1" source="-OsjYRaCj5ML0IWbTysy-10">
          <mxGeometry relative="1" as="geometry">
            <mxPoint x="240" y="700" as="targetPoint" />
            <Array as="points">
              <mxPoint x="182" y="700" />
            </Array>
          </mxGeometry>
        </mxCell>
        <mxCell id="WE0EybeJg85L4R40hYA2-6" style="edgeStyle=orthogonalEdgeStyle;rounded=0;orthogonalLoop=1;jettySize=auto;html=1;endArrow=none;endFill=0;entryX=0.042;entryY=0.505;entryDx=0;entryDy=0;entryPerimeter=0;" edge="1" parent="1" source="-OsjYRaCj5ML0IWbTysy-10" target="WE0EybeJg85L4R40hYA2-8">
          <mxGeometry relative="1" as="geometry">
            <mxPoint x="240" y="880" as="targetPoint" />
            <Array as="points">
              <mxPoint x="182" y="760" />
            </Array>
          </mxGeometry>
        </mxCell>
        <mxCell id="-OsjYRaCj5ML0IWbTysy-10" value="" style="sketch=0;outlineConnect=0;fontColor=#232F3E;gradientColor=none;fillColor=#232F3D;strokeColor=none;dashed=0;verticalLabelPosition=bottom;verticalAlign=top;align=center;html=1;fontSize=12;fontStyle=0;aspect=fixed;pointerEvents=1;shape=mxgraph.aws4.folder;" parent="1" vertex="1">
          <mxGeometry x="160" y="240" width="43.94" height="40" as="geometry" />
        </mxCell>
        <mxCell id="-OsjYRaCj5ML0IWbTysy-18" value="&lt;span style=&quot;font-size: 20px;&quot;&gt;main.py&lt;/span&gt;" style="rounded=0;whiteSpace=wrap;html=1;fontSize=18;" parent="1" vertex="1">
          <mxGeometry x="290" y="320" width="150" height="40" as="geometry" />
        </mxCell>
        <mxCell id="-OsjYRaCj5ML0IWbTysy-21" value="" style="image;aspect=fixed;html=1;points=[];align=center;fontSize=12;image=img/lib/azure2/general/File.svg;" parent="1" vertex="1">
          <mxGeometry x="240" y="320" width="32.46" height="40" as="geometry" />
        </mxCell>
        <mxCell id="-OsjYRaCj5ML0IWbTysy-28" value="&lt;span style=&quot;font-size: 20px;&quot;&gt;read.py&lt;/span&gt;" style="rounded=0;whiteSpace=wrap;html=1;fontSize=18;" parent="1" vertex="1">
          <mxGeometry x="290" y="380" width="150" height="40" as="geometry" />
        </mxCell>
        <mxCell id="-OsjYRaCj5ML0IWbTysy-29" value="" style="image;aspect=fixed;html=1;points=[];align=center;fontSize=12;image=img/lib/azure2/general/File.svg;" parent="1" vertex="1">
          <mxGeometry x="240" y="380" width="32.46" height="40" as="geometry" />
        </mxCell>
        <mxCell id="-OsjYRaCj5ML0IWbTysy-30" value="&lt;span style=&quot;font-size: 20px;&quot;&gt;resize.py&lt;/span&gt;" style="rounded=0;whiteSpace=wrap;html=1;fontSize=18;" parent="1" vertex="1">
          <mxGeometry x="290" y="440" width="150" height="40" as="geometry" />
        </mxCell>
        <mxCell id="-OsjYRaCj5ML0IWbTysy-31" value="" style="image;aspect=fixed;html=1;points=[];align=center;fontSize=12;image=img/lib/azure2/general/File.svg;" parent="1" vertex="1">
          <mxGeometry x="240" y="440" width="32.46" height="40" as="geometry" />
        </mxCell>
        <mxCell id="-OsjYRaCj5ML0IWbTysy-32" value="&lt;span style=&quot;font-size: 20px;&quot;&gt;show.py&lt;/span&gt;" style="rounded=0;whiteSpace=wrap;html=1;fontSize=18;" parent="1" vertex="1">
          <mxGeometry x="290" y="500" width="150" height="40" as="geometry" />
        </mxCell>
        <mxCell id="-OsjYRaCj5ML0IWbTysy-33" value="" style="image;aspect=fixed;html=1;points=[];align=center;fontSize=12;image=img/lib/azure2/general/File.svg;" parent="1" vertex="1">
          <mxGeometry x="240" y="500" width="32.46" height="40" as="geometry" />
        </mxCell>
        <mxCell id="-OsjYRaCj5ML0IWbTysy-34" value="&lt;span style=&quot;font-size: 20px;&quot;&gt;calculate.py&lt;/span&gt;" style="rounded=0;whiteSpace=wrap;html=1;fontSize=18;" parent="1" vertex="1">
          <mxGeometry x="290" y="560" width="150" height="40" as="geometry" />
        </mxCell>
        <mxCell id="-OsjYRaCj5ML0IWbTysy-35" value="" style="image;aspect=fixed;html=1;points=[];align=center;fontSize=12;image=img/lib/azure2/general/File.svg;" parent="1" vertex="1">
          <mxGeometry x="240" y="560" width="32.46" height="40" as="geometry" />
        </mxCell>
        <mxCell id="-OsjYRaCj5ML0IWbTysy-36" value="&lt;span style=&quot;font-size: 20px;&quot;&gt;export.py&lt;/span&gt;" style="rounded=0;whiteSpace=wrap;html=1;fontSize=18;" parent="1" vertex="1">
          <mxGeometry x="290" y="620" width="150" height="40" as="geometry" />
        </mxCell>
        <mxCell id="-OsjYRaCj5ML0IWbTysy-37" value="" style="image;aspect=fixed;html=1;points=[];align=center;fontSize=12;image=img/lib/azure2/general/File.svg;" parent="1" vertex="1">
          <mxGeometry x="240" y="620" width="32.46" height="40" as="geometry" />
        </mxCell>
        <mxCell id="-OsjYRaCj5ML0IWbTysy-38" style="edgeStyle=orthogonalEdgeStyle;rounded=0;orthogonalLoop=1;jettySize=auto;html=1;entryX=0.025;entryY=0.5;entryDx=0;entryDy=0;entryPerimeter=0;endArrow=none;endFill=0;" parent="1" source="-OsjYRaCj5ML0IWbTysy-10" target="-OsjYRaCj5ML0IWbTysy-21" edge="1">
          <mxGeometry relative="1" as="geometry">
            <Array as="points">
              <mxPoint x="182" y="340" />
            </Array>
          </mxGeometry>
        </mxCell>
        <mxCell id="-OsjYRaCj5ML0IWbTysy-41" style="edgeStyle=orthogonalEdgeStyle;rounded=0;orthogonalLoop=1;jettySize=auto;html=1;entryX=0;entryY=0.483;entryDx=0;entryDy=0;entryPerimeter=0;endArrow=none;endFill=0;" parent="1" source="-OsjYRaCj5ML0IWbTysy-10" target="-OsjYRaCj5ML0IWbTysy-33" edge="1">
          <mxGeometry relative="1" as="geometry">
            <mxPoint x="181.9540229885058" y="279.4927272727273" as="sourcePoint" />
            <mxPoint x="280" y="519.52" as="targetPoint" />
            <Array as="points">
              <mxPoint x="182" y="520" />
              <mxPoint x="220" y="520" />
            </Array>
          </mxGeometry>
        </mxCell>
        <mxCell id="wzY-Gv61pwX7nlD081uU-8" value="&lt;font style=&quot;font-size: 20px;&quot;&gt;config.yaml&lt;/font&gt;" style="rounded=0;whiteSpace=wrap;html=1;fontSize=18;" vertex="1" parent="1">
          <mxGeometry x="290" y="680" width="150" height="40" as="geometry" />
        </mxCell>
        <mxCell id="wzY-Gv61pwX7nlD081uU-9" value="" style="image;aspect=fixed;html=1;points=[];align=center;fontSize=12;image=img/lib/azure2/general/File.svg;" vertex="1" parent="1">
          <mxGeometry x="240" y="680" width="32.46" height="40" as="geometry" />
        </mxCell>
        <mxCell id="wzY-Gv61pwX7nlD081uU-10" style="edgeStyle=orthogonalEdgeStyle;rounded=0;orthogonalLoop=1;jettySize=auto;html=1;endArrow=none;endFill=0;" edge="1" parent="1" source="-OsjYRaCj5ML0IWbTysy-10">
          <mxGeometry relative="1" as="geometry">
            <mxPoint x="240" y="460" as="targetPoint" />
            <Array as="points">
              <mxPoint x="182" y="460" />
            </Array>
          </mxGeometry>
        </mxCell>
        <mxCell id="WE0EybeJg85L4R40hYA2-7" value="&lt;span style=&quot;font-size: 20px;&quot;&gt;logs&lt;/span&gt;" style="rounded=0;whiteSpace=wrap;html=1;fontSize=18;" vertex="1" parent="1">
          <mxGeometry x="290" y="740" width="150" height="40" as="geometry" />
        </mxCell>
        <mxCell id="WE0EybeJg85L4R40hYA2-8" value="" style="image;aspect=fixed;html=1;points=[];align=center;fontSize=12;image=img/lib/azure2/general/File.svg;" vertex="1" parent="1">
          <mxGeometry x="240" y="740" width="32.46" height="40" as="geometry" />
        </mxCell>
        <mxCell id="WE0EybeJg85L4R40hYA2-9" value="&lt;span style=&quot;font-size: 20px;&quot;&gt;data&lt;/span&gt;" style="rounded=0;whiteSpace=wrap;html=1;fontSize=18;" vertex="1" parent="1">
          <mxGeometry x="220" y="820" width="70" height="40" as="geometry" />
        </mxCell>
        <mxCell id="WE0EybeJg85L4R40hYA2-13" style="edgeStyle=orthogonalEdgeStyle;rounded=0;orthogonalLoop=1;jettySize=auto;html=1;endArrow=none;endFill=0;" edge="1" parent="1" source="WE0EybeJg85L4R40hYA2-10" target="WE0EybeJg85L4R40hYA2-12">
          <mxGeometry relative="1" as="geometry">
            <mxPoint x="181.97000000000003" y="930" as="targetPoint" />
            <Array as="points">
              <mxPoint x="182" y="920" />
            </Array>
          </mxGeometry>
        </mxCell>
        <mxCell id="WE0EybeJg85L4R40hYA2-94" style="edgeStyle=orthogonalEdgeStyle;rounded=0;orthogonalLoop=1;jettySize=auto;html=1;endArrow=none;endFill=0;" edge="1" parent="1" source="WE0EybeJg85L4R40hYA2-10" target="WE0EybeJg85L4R40hYA2-74">
          <mxGeometry relative="1" as="geometry">
            <mxPoint x="181.97000000000003" y="1450" as="targetPoint" />
            <Array as="points">
              <mxPoint x="182" y="1460" />
            </Array>
          </mxGeometry>
        </mxCell>
        <mxCell id="WE0EybeJg85L4R40hYA2-10" value="" style="sketch=0;outlineConnect=0;fontColor=#232F3E;gradientColor=none;fillColor=#232F3D;strokeColor=none;dashed=0;verticalLabelPosition=bottom;verticalAlign=top;align=center;html=1;fontSize=12;fontStyle=0;aspect=fixed;pointerEvents=1;shape=mxgraph.aws4.folder;" vertex="1" parent="1">
          <mxGeometry x="160" y="820" width="43.94" height="40" as="geometry" />
        </mxCell>
        <mxCell id="WE0EybeJg85L4R40hYA2-11" value="&lt;span style=&quot;font-size: 20px;&quot;&gt;raw&lt;/span&gt;" style="rounded=0;whiteSpace=wrap;html=1;fontSize=18;" vertex="1" parent="1">
          <mxGeometry x="300" y="900" width="70" height="40" as="geometry" />
        </mxCell>
        <mxCell id="WE0EybeJg85L4R40hYA2-19" style="edgeStyle=orthogonalEdgeStyle;rounded=0;orthogonalLoop=1;jettySize=auto;html=1;endArrow=none;endFill=0;" edge="1" parent="1" source="WE0EybeJg85L4R40hYA2-12" target="WE0EybeJg85L4R40hYA2-18">
          <mxGeometry relative="1" as="geometry">
            <Array as="points">
              <mxPoint x="262" y="1000" />
            </Array>
          </mxGeometry>
        </mxCell>
        <mxCell id="WE0EybeJg85L4R40hYA2-45" style="edgeStyle=orthogonalEdgeStyle;rounded=0;orthogonalLoop=1;jettySize=auto;html=1;endArrow=none;endFill=0;" edge="1" parent="1" source="WE0EybeJg85L4R40hYA2-12" target="WE0EybeJg85L4R40hYA2-40">
          <mxGeometry relative="1" as="geometry">
            <mxPoint x="290" y="1280" as="targetPoint" />
            <Array as="points">
              <mxPoint x="262" y="1240" />
            </Array>
          </mxGeometry>
        </mxCell>
        <mxCell id="WE0EybeJg85L4R40hYA2-12" value="" style="sketch=0;outlineConnect=0;fontColor=#232F3E;gradientColor=none;fillColor=#232F3D;strokeColor=none;dashed=0;verticalLabelPosition=bottom;verticalAlign=top;align=center;html=1;fontSize=12;fontStyle=0;aspect=fixed;pointerEvents=1;shape=mxgraph.aws4.folder;" vertex="1" parent="1">
          <mxGeometry x="240" y="900" width="43.94" height="40" as="geometry" />
        </mxCell>
        <mxCell id="WE0EybeJg85L4R40hYA2-17" value="&lt;span style=&quot;font-size: 20px;&quot;&gt;NinhThuan_2001_raw&lt;/span&gt;" style="rounded=0;whiteSpace=wrap;html=1;fontSize=18;" vertex="1" parent="1">
          <mxGeometry x="380" y="980" width="250" height="40" as="geometry" />
        </mxCell>
        <mxCell id="WE0EybeJg85L4R40hYA2-31" style="edgeStyle=orthogonalEdgeStyle;rounded=0;orthogonalLoop=1;jettySize=auto;html=1;endArrow=none;endFill=0;" edge="1" parent="1" source="WE0EybeJg85L4R40hYA2-18" target="WE0EybeJg85L4R40hYA2-30">
          <mxGeometry relative="1" as="geometry">
            <Array as="points">
              <mxPoint x="342" y="1080" />
            </Array>
          </mxGeometry>
        </mxCell>
        <mxCell id="WE0EybeJg85L4R40hYA2-35" style="edgeStyle=orthogonalEdgeStyle;rounded=0;orthogonalLoop=1;jettySize=auto;html=1;endArrow=none;endFill=0;" edge="1" parent="1" source="WE0EybeJg85L4R40hYA2-18" target="WE0EybeJg85L4R40hYA2-33">
          <mxGeometry relative="1" as="geometry">
            <Array as="points">
              <mxPoint x="342" y="1140" />
            </Array>
          </mxGeometry>
        </mxCell>
        <mxCell id="WE0EybeJg85L4R40hYA2-18" value="" style="sketch=0;outlineConnect=0;fontColor=#232F3E;gradientColor=none;fillColor=#232F3D;strokeColor=none;dashed=0;verticalLabelPosition=bottom;verticalAlign=top;align=center;html=1;fontSize=12;fontStyle=0;aspect=fixed;pointerEvents=1;shape=mxgraph.aws4.folder;" vertex="1" parent="1">
          <mxGeometry x="320" y="980" width="43.94" height="40" as="geometry" />
        </mxCell>
        <mxCell id="WE0EybeJg85L4R40hYA2-28" value="" style="endArrow=none;dashed=1;html=1;dashPattern=1 3;strokeWidth=2;rounded=0;" edge="1" parent="1">
          <mxGeometry width="50" height="50" relative="1" as="geometry">
            <mxPoint x="320" y="1190" as="sourcePoint" />
            <mxPoint x="660" y="1190" as="targetPoint" />
          </mxGeometry>
        </mxCell>
        <mxCell id="WE0EybeJg85L4R40hYA2-29" value="&lt;span style=&quot;font-size: 20px;&quot;&gt;NinhThuan_MuaKho_2001_raw&lt;/span&gt;" style="rounded=0;whiteSpace=wrap;html=1;fontSize=18;" vertex="1" parent="1">
          <mxGeometry x="460" y="1060" width="330" height="40" as="geometry" />
        </mxCell>
        <mxCell id="WE0EybeJg85L4R40hYA2-30" value="" style="sketch=0;outlineConnect=0;fontColor=#232F3E;gradientColor=none;fillColor=#232F3D;strokeColor=none;dashed=0;verticalLabelPosition=bottom;verticalAlign=top;align=center;html=1;fontSize=12;fontStyle=0;aspect=fixed;pointerEvents=1;shape=mxgraph.aws4.folder;" vertex="1" parent="1">
          <mxGeometry x="400" y="1060" width="43.94" height="40" as="geometry" />
        </mxCell>
        <mxCell id="WE0EybeJg85L4R40hYA2-32" value="&lt;span style=&quot;font-size: 20px;&quot;&gt;NinhThuan_MuaMua_2001_raw&lt;/span&gt;" style="rounded=0;whiteSpace=wrap;html=1;fontSize=18;" vertex="1" parent="1">
          <mxGeometry x="460" y="1120" width="330" height="40" as="geometry" />
        </mxCell>
        <mxCell id="WE0EybeJg85L4R40hYA2-33" value="" style="sketch=0;outlineConnect=0;fontColor=#232F3E;gradientColor=none;fillColor=#232F3D;strokeColor=none;dashed=0;verticalLabelPosition=bottom;verticalAlign=top;align=center;html=1;fontSize=12;fontStyle=0;aspect=fixed;pointerEvents=1;shape=mxgraph.aws4.folder;" vertex="1" parent="1">
          <mxGeometry x="400" y="1120" width="43.94" height="40" as="geometry" />
        </mxCell>
        <mxCell id="WE0EybeJg85L4R40hYA2-37" value="&lt;span style=&quot;font-size: 20px;&quot;&gt;NinhThuan_2050_raw&lt;/span&gt;" style="rounded=0;whiteSpace=wrap;html=1;fontSize=18;" vertex="1" parent="1">
          <mxGeometry x="380" y="1220" width="250" height="40" as="geometry" />
        </mxCell>
        <mxCell id="WE0EybeJg85L4R40hYA2-38" style="edgeStyle=orthogonalEdgeStyle;rounded=0;orthogonalLoop=1;jettySize=auto;html=1;endArrow=none;endFill=0;" edge="1" parent="1" source="WE0EybeJg85L4R40hYA2-40" target="WE0EybeJg85L4R40hYA2-42">
          <mxGeometry relative="1" as="geometry">
            <Array as="points">
              <mxPoint x="342" y="1320" />
            </Array>
          </mxGeometry>
        </mxCell>
        <mxCell id="WE0EybeJg85L4R40hYA2-39" style="edgeStyle=orthogonalEdgeStyle;rounded=0;orthogonalLoop=1;jettySize=auto;html=1;endArrow=none;endFill=0;" edge="1" parent="1" source="WE0EybeJg85L4R40hYA2-40" target="WE0EybeJg85L4R40hYA2-44">
          <mxGeometry relative="1" as="geometry">
            <Array as="points">
              <mxPoint x="342" y="1380" />
            </Array>
          </mxGeometry>
        </mxCell>
        <mxCell id="WE0EybeJg85L4R40hYA2-40" value="" style="sketch=0;outlineConnect=0;fontColor=#232F3E;gradientColor=none;fillColor=#232F3D;strokeColor=none;dashed=0;verticalLabelPosition=bottom;verticalAlign=top;align=center;html=1;fontSize=12;fontStyle=0;aspect=fixed;pointerEvents=1;shape=mxgraph.aws4.folder;" vertex="1" parent="1">
          <mxGeometry x="320" y="1220" width="43.94" height="40" as="geometry" />
        </mxCell>
        <mxCell id="WE0EybeJg85L4R40hYA2-41" value="&lt;span style=&quot;font-size: 20px;&quot;&gt;NinhThuan_MuaKho_2050_raw&lt;/span&gt;" style="rounded=0;whiteSpace=wrap;html=1;fontSize=18;" vertex="1" parent="1">
          <mxGeometry x="460" y="1300" width="330" height="40" as="geometry" />
        </mxCell>
        <mxCell id="WE0EybeJg85L4R40hYA2-42" value="" style="sketch=0;outlineConnect=0;fontColor=#232F3E;gradientColor=none;fillColor=#232F3D;strokeColor=none;dashed=0;verticalLabelPosition=bottom;verticalAlign=top;align=center;html=1;fontSize=12;fontStyle=0;aspect=fixed;pointerEvents=1;shape=mxgraph.aws4.folder;" vertex="1" parent="1">
          <mxGeometry x="400" y="1300" width="43.94" height="40" as="geometry" />
        </mxCell>
        <mxCell id="WE0EybeJg85L4R40hYA2-43" value="&lt;span style=&quot;font-size: 20px;&quot;&gt;NinhThuan_MuaMua_2050_raw&lt;/span&gt;" style="rounded=0;whiteSpace=wrap;html=1;fontSize=18;" vertex="1" parent="1">
          <mxGeometry x="460" y="1360" width="330" height="40" as="geometry" />
        </mxCell>
        <mxCell id="WE0EybeJg85L4R40hYA2-44" value="" style="sketch=0;outlineConnect=0;fontColor=#232F3E;gradientColor=none;fillColor=#232F3D;strokeColor=none;dashed=0;verticalLabelPosition=bottom;verticalAlign=top;align=center;html=1;fontSize=12;fontStyle=0;aspect=fixed;pointerEvents=1;shape=mxgraph.aws4.folder;" vertex="1" parent="1">
          <mxGeometry x="400" y="1360" width="43.94" height="40" as="geometry" />
        </mxCell>
        <mxCell id="WE0EybeJg85L4R40hYA2-46" value="" style="endArrow=none;dashed=1;html=1;dashPattern=1 3;strokeWidth=2;rounded=0;" edge="1" parent="1">
          <mxGeometry width="50" height="50" relative="1" as="geometry">
            <mxPoint x="320" y="1180" as="sourcePoint" />
            <mxPoint x="660" y="1180" as="targetPoint" />
          </mxGeometry>
        </mxCell>
        <mxCell id="WE0EybeJg85L4R40hYA2-47" value="" style="endArrow=none;dashed=1;html=1;dashPattern=1 3;strokeWidth=2;rounded=0;" edge="1" parent="1">
          <mxGeometry width="50" height="50" relative="1" as="geometry">
            <mxPoint x="320" y="1200" as="sourcePoint" />
            <mxPoint x="660" y="1200" as="targetPoint" />
          </mxGeometry>
        </mxCell>
        <mxCell id="WE0EybeJg85L4R40hYA2-71" value="&lt;span style=&quot;font-size: 20px;&quot;&gt;processed&lt;/span&gt;" style="rounded=0;whiteSpace=wrap;html=1;fontSize=18;" vertex="1" parent="1">
          <mxGeometry x="300" y="1440" width="130" height="40" as="geometry" />
        </mxCell>
        <mxCell id="WE0EybeJg85L4R40hYA2-72" style="edgeStyle=orthogonalEdgeStyle;rounded=0;orthogonalLoop=1;jettySize=auto;html=1;endArrow=none;endFill=0;" edge="1" parent="1" source="WE0EybeJg85L4R40hYA2-74" target="WE0EybeJg85L4R40hYA2-78">
          <mxGeometry relative="1" as="geometry">
            <Array as="points">
              <mxPoint x="262" y="1540" />
            </Array>
          </mxGeometry>
        </mxCell>
        <mxCell id="WE0EybeJg85L4R40hYA2-73" style="edgeStyle=orthogonalEdgeStyle;rounded=0;orthogonalLoop=1;jettySize=auto;html=1;endArrow=none;endFill=0;" edge="1" parent="1" source="WE0EybeJg85L4R40hYA2-74" target="WE0EybeJg85L4R40hYA2-87">
          <mxGeometry relative="1" as="geometry">
            <mxPoint x="290" y="1820" as="targetPoint" />
            <Array as="points">
              <mxPoint x="262" y="1780" />
            </Array>
          </mxGeometry>
        </mxCell>
        <mxCell id="WE0EybeJg85L4R40hYA2-74" value="" style="sketch=0;outlineConnect=0;fontColor=#232F3E;gradientColor=none;fillColor=#232F3D;strokeColor=none;dashed=0;verticalLabelPosition=bottom;verticalAlign=top;align=center;html=1;fontSize=12;fontStyle=0;aspect=fixed;pointerEvents=1;shape=mxgraph.aws4.folder;" vertex="1" parent="1">
          <mxGeometry x="240" y="1440" width="43.94" height="40" as="geometry" />
        </mxCell>
        <mxCell id="WE0EybeJg85L4R40hYA2-75" value="&lt;span style=&quot;font-size: 20px;&quot;&gt;NinhThuan_2001_processed&lt;/span&gt;" style="rounded=0;whiteSpace=wrap;html=1;fontSize=18;" vertex="1" parent="1">
          <mxGeometry x="380" y="1520" width="300" height="40" as="geometry" />
        </mxCell>
        <mxCell id="WE0EybeJg85L4R40hYA2-76" style="edgeStyle=orthogonalEdgeStyle;rounded=0;orthogonalLoop=1;jettySize=auto;html=1;endArrow=none;endFill=0;" edge="1" parent="1" source="WE0EybeJg85L4R40hYA2-78" target="WE0EybeJg85L4R40hYA2-81">
          <mxGeometry relative="1" as="geometry">
            <Array as="points">
              <mxPoint x="342" y="1620" />
            </Array>
          </mxGeometry>
        </mxCell>
        <mxCell id="WE0EybeJg85L4R40hYA2-77" style="edgeStyle=orthogonalEdgeStyle;rounded=0;orthogonalLoop=1;jettySize=auto;html=1;endArrow=none;endFill=0;" edge="1" parent="1" source="WE0EybeJg85L4R40hYA2-78" target="WE0EybeJg85L4R40hYA2-83">
          <mxGeometry relative="1" as="geometry">
            <Array as="points">
              <mxPoint x="342" y="1680" />
            </Array>
          </mxGeometry>
        </mxCell>
        <mxCell id="WE0EybeJg85L4R40hYA2-78" value="" style="sketch=0;outlineConnect=0;fontColor=#232F3E;gradientColor=none;fillColor=#232F3D;strokeColor=none;dashed=0;verticalLabelPosition=bottom;verticalAlign=top;align=center;html=1;fontSize=12;fontStyle=0;aspect=fixed;pointerEvents=1;shape=mxgraph.aws4.folder;" vertex="1" parent="1">
          <mxGeometry x="320" y="1520" width="43.94" height="40" as="geometry" />
        </mxCell>
        <mxCell id="WE0EybeJg85L4R40hYA2-79" value="" style="endArrow=none;dashed=1;html=1;dashPattern=1 3;strokeWidth=2;rounded=0;" edge="1" parent="1">
          <mxGeometry width="50" height="50" relative="1" as="geometry">
            <mxPoint x="320" y="1730" as="sourcePoint" />
            <mxPoint x="660" y="1730" as="targetPoint" />
          </mxGeometry>
        </mxCell>
        <mxCell id="WE0EybeJg85L4R40hYA2-80" value="&lt;span style=&quot;font-size: 20px;&quot;&gt;NinhThuan_MuaKho_2001_processed&lt;/span&gt;" style="rounded=0;whiteSpace=wrap;html=1;fontSize=18;" vertex="1" parent="1">
          <mxGeometry x="460" y="1600" width="400" height="40" as="geometry" />
        </mxCell>
        <mxCell id="WE0EybeJg85L4R40hYA2-81" value="" style="sketch=0;outlineConnect=0;fontColor=#232F3E;gradientColor=none;fillColor=#232F3D;strokeColor=none;dashed=0;verticalLabelPosition=bottom;verticalAlign=top;align=center;html=1;fontSize=12;fontStyle=0;aspect=fixed;pointerEvents=1;shape=mxgraph.aws4.folder;" vertex="1" parent="1">
          <mxGeometry x="400" y="1600" width="43.94" height="40" as="geometry" />
        </mxCell>
        <mxCell id="WE0EybeJg85L4R40hYA2-82" value="&lt;span style=&quot;font-size: 20px;&quot;&gt;NinhThuan_MuaMua_2001_processed&lt;/span&gt;" style="rounded=0;whiteSpace=wrap;html=1;fontSize=18;" vertex="1" parent="1">
          <mxGeometry x="460" y="1660" width="400" height="40" as="geometry" />
        </mxCell>
        <mxCell id="WE0EybeJg85L4R40hYA2-83" value="" style="sketch=0;outlineConnect=0;fontColor=#232F3E;gradientColor=none;fillColor=#232F3D;strokeColor=none;dashed=0;verticalLabelPosition=bottom;verticalAlign=top;align=center;html=1;fontSize=12;fontStyle=0;aspect=fixed;pointerEvents=1;shape=mxgraph.aws4.folder;" vertex="1" parent="1">
          <mxGeometry x="400" y="1660" width="43.94" height="40" as="geometry" />
        </mxCell>
        <mxCell id="WE0EybeJg85L4R40hYA2-84" value="&lt;span style=&quot;font-size: 20px;&quot;&gt;NinhThuan_2050_processed&lt;/span&gt;" style="rounded=0;whiteSpace=wrap;html=1;fontSize=18;" vertex="1" parent="1">
          <mxGeometry x="380" y="1760" width="300" height="40" as="geometry" />
        </mxCell>
        <mxCell id="WE0EybeJg85L4R40hYA2-85" style="edgeStyle=orthogonalEdgeStyle;rounded=0;orthogonalLoop=1;jettySize=auto;html=1;endArrow=none;endFill=0;" edge="1" parent="1" source="WE0EybeJg85L4R40hYA2-87" target="WE0EybeJg85L4R40hYA2-89">
          <mxGeometry relative="1" as="geometry">
            <Array as="points">
              <mxPoint x="342" y="1860" />
            </Array>
          </mxGeometry>
        </mxCell>
        <mxCell id="WE0EybeJg85L4R40hYA2-86" style="edgeStyle=orthogonalEdgeStyle;rounded=0;orthogonalLoop=1;jettySize=auto;html=1;endArrow=none;endFill=0;" edge="1" parent="1" source="WE0EybeJg85L4R40hYA2-87" target="WE0EybeJg85L4R40hYA2-91">
          <mxGeometry relative="1" as="geometry">
            <Array as="points">
              <mxPoint x="342" y="1920" />
            </Array>
          </mxGeometry>
        </mxCell>
        <mxCell id="WE0EybeJg85L4R40hYA2-87" value="" style="sketch=0;outlineConnect=0;fontColor=#232F3E;gradientColor=none;fillColor=#232F3D;strokeColor=none;dashed=0;verticalLabelPosition=bottom;verticalAlign=top;align=center;html=1;fontSize=12;fontStyle=0;aspect=fixed;pointerEvents=1;shape=mxgraph.aws4.folder;" vertex="1" parent="1">
          <mxGeometry x="320" y="1760" width="43.94" height="40" as="geometry" />
        </mxCell>
        <mxCell id="WE0EybeJg85L4R40hYA2-88" value="&lt;span style=&quot;font-size: 20px;&quot;&gt;NinhThuan_MuaKho_2050_processed&lt;/span&gt;" style="rounded=0;whiteSpace=wrap;html=1;fontSize=18;" vertex="1" parent="1">
          <mxGeometry x="460" y="1840" width="400" height="40" as="geometry" />
        </mxCell>
        <mxCell id="WE0EybeJg85L4R40hYA2-89" value="" style="sketch=0;outlineConnect=0;fontColor=#232F3E;gradientColor=none;fillColor=#232F3D;strokeColor=none;dashed=0;verticalLabelPosition=bottom;verticalAlign=top;align=center;html=1;fontSize=12;fontStyle=0;aspect=fixed;pointerEvents=1;shape=mxgraph.aws4.folder;" vertex="1" parent="1">
          <mxGeometry x="400" y="1840" width="43.94" height="40" as="geometry" />
        </mxCell>
        <mxCell id="WE0EybeJg85L4R40hYA2-90" value="&lt;span style=&quot;font-size: 20px;&quot;&gt;NinhThuan_MuaMua_2050_processed&lt;/span&gt;" style="rounded=0;whiteSpace=wrap;html=1;fontSize=18;" vertex="1" parent="1">
          <mxGeometry x="460" y="1900" width="400" height="40" as="geometry" />
        </mxCell>
        <mxCell id="WE0EybeJg85L4R40hYA2-91" value="" style="sketch=0;outlineConnect=0;fontColor=#232F3E;gradientColor=none;fillColor=#232F3D;strokeColor=none;dashed=0;verticalLabelPosition=bottom;verticalAlign=top;align=center;html=1;fontSize=12;fontStyle=0;aspect=fixed;pointerEvents=1;shape=mxgraph.aws4.folder;" vertex="1" parent="1">
          <mxGeometry x="400" y="1900" width="43.94" height="40" as="geometry" />
        </mxCell>
        <mxCell id="WE0EybeJg85L4R40hYA2-92" value="" style="endArrow=none;dashed=1;html=1;dashPattern=1 3;strokeWidth=2;rounded=0;" edge="1" parent="1">
          <mxGeometry width="50" height="50" relative="1" as="geometry">
            <mxPoint x="320" y="1720" as="sourcePoint" />
            <mxPoint x="660" y="1720" as="targetPoint" />
          </mxGeometry>
        </mxCell>
        <mxCell id="WE0EybeJg85L4R40hYA2-93" value="" style="endArrow=none;dashed=1;html=1;dashPattern=1 3;strokeWidth=2;rounded=0;" edge="1" parent="1">
          <mxGeometry width="50" height="50" relative="1" as="geometry">
            <mxPoint x="320" y="1740" as="sourcePoint" />
            <mxPoint x="660" y="1740" as="targetPoint" />
          </mxGeometry>
        </mxCell>
        <mxCell id="WE0EybeJg85L4R40hYA2-98" value="&lt;h1 style=&quot;margin-top: 0px; font-size: 20px;&quot;&gt;Thư mục cha&lt;/h1&gt;" style="text;html=1;whiteSpace=wrap;overflow=hidden;rounded=0;" vertex="1" parent="1">
          <mxGeometry x="440" y="160" width="700" height="40" as="geometry" />
        </mxCell>
        <mxCell id="WE0EybeJg85L4R40hYA2-99" value="&lt;h1 style=&quot;margin-top: 0px; font-size: 20px;&quot;&gt;&lt;font color=&quot;#080404&quot;&gt;Thư mục Python project xử lý ảnh Viễn thám Landsat 8-9 tự động&lt;/font&gt;&lt;/h1&gt;" style="text;html=1;whiteSpace=wrap;overflow=hidden;rounded=0;" vertex="1" parent="1">
          <mxGeometry x="520" y="240" width="640" height="40" as="geometry" />
        </mxCell>
        <mxCell id="WE0EybeJg85L4R40hYA2-100" value="&lt;h1 style=&quot;margin-top: 0px; font-size: 20px;&quot;&gt;&lt;font color=&quot;#080404&quot;&gt;Thư mục lưu dữ liệu ảnh Viễn thám Landsat 8-9&lt;/font&gt;&lt;/h1&gt;" style="text;html=1;whiteSpace=wrap;overflow=hidden;rounded=0;" vertex="1" parent="1">
          <mxGeometry x="330" y="820" width="830" height="40" as="geometry" />
        </mxCell>
        <mxCell id="WE0EybeJg85L4R40hYA2-101" value="&lt;h1 style=&quot;margin-top: 0px; font-size: 20px;&quot;&gt;&lt;font color=&quot;#080404&quot;&gt;Thư mục lưu ảnh thô, chưa qua xử lý&lt;/font&gt;&lt;/h1&gt;" style="text;html=1;whiteSpace=wrap;overflow=hidden;rounded=0;" vertex="1" parent="1">
          <mxGeometry x="410" y="900" width="750" height="40" as="geometry" />
        </mxCell>
        <mxCell id="WE0EybeJg85L4R40hYA2-103" value="&lt;h1 style=&quot;margin-top: 0px; font-size: 20px;&quot;&gt;&lt;font color=&quot;#080404&quot;&gt;Thư mục lưu ảnh đã được xử lý&lt;/font&gt;&lt;/h1&gt;" style="text;html=1;whiteSpace=wrap;overflow=hidden;rounded=0;" vertex="1" parent="1">
          <mxGeometry x="460" y="1440" width="700" height="40" as="geometry" />
        </mxCell>
      </root>
    </mxGraphModel>
  </diagram>
</mxfile>
